<?xml version="1.0" encoding="UTF-8"?>
<!-- Generator: Adobe Illustrator 19.1.0, SVG Export Plug-In . SVG Version: 6.00 Build 0)  -->
<svg xmlns="http://www.w3.org/2000/svg" xmlns:xlink="http://www.w3.org/1999/xlink" xmlns:dc="http://purl.org/dc/elements/1.1/" xmlns:cc="http://creativecommons.org/ns#" xmlns:rdf="http://www.w3.org/1999/02/22-rdf-syntax-ns#" version="1.1" id="DESIGNS" x="0px" y="0px" width="32px" height="32px" viewBox="0 0 32 32" style="enable-background:new 0 0 32 32;" xml:space="preserve">
<title property="dc:title">to teach</title><desc property="dc:description">An icon for "teach" from the Feather series on to [icon]. Downloaded from http://www.toicon.com/icons/feather_teach by 180.191.163.225 on 2020-05-06. Licensed CC-BY, see http://toicon.com/license/ for details.</desc>
<path class="feather_een" d="M14,14.5c0,0.276-0.224,0.5-0.5,0.5H13v0.5c0,0.276-0.224,0.5-0.5,0.5S12,15.776,12,15.5V15h-0.5  c-0.276,0-0.5-0.224-0.5-0.5c0-0.276,0.224-0.5,0.5-0.5H12v-0.5c0-0.276,0.224-0.5,0.5-0.5s0.5,0.224,0.5,0.5V14h0.5  C13.776,14,14,14.224,14,14.5z M8.5,12h-1C7.224,12,7,12.224,7,12.5C7,12.776,7.224,13,7.5,13H8v3.5C8,16.776,8.224,17,8.5,17  S9,16.776,9,16.5v-4C9,12.224,8.776,12,8.5,12z M30,25v1c0,0.552-0.448,1-1,1H3c-0.552,0-1-0.448-1-1v-1c0-0.552,0.448-1,1-1V8  c0-1.657,1.343-3,3-3h20c1.657,0,3,1.343,3,3v16C29.552,24,30,24.448,30,25z M4,24h18.511C22.195,23.581,22,23.065,22,22.5  c0-1.209,0.859-2.218,2-2.45V19.5c0-0.276,0.224-0.5,0.5-0.5s0.5,0.224,0.5,0.5v0.55c1.141,0.232,2,1.24,2,2.45  c0,0.565-0.195,1.081-0.511,1.5H28V8c0-1.105-0.895-2-2-2H6C4.895,6,4,6.895,4,8V24z M24.5,21c-0.827,0-1.5,0.673-1.5,1.5  s0.673,1.5,1.5,1.5s1.5-0.673,1.5-1.5S25.327,21,24.5,21z M29,25H3v1h26V25z M20.5,14h2c0.276,0,0.5-0.224,0.5-0.5  c0-0.276-0.224-0.5-0.5-0.5h-2c-0.276,0-0.5,0.224-0.5,0.5C20,13.776,20.224,14,20.5,14z M23,15.5c0-0.276-0.224-0.5-0.5-0.5h-2  c-0.276,0-0.5,0.224-0.5,0.5c0,0.276,0.224,0.5,0.5,0.5h2C22.776,16,23,15.776,23,15.5z M17.5,12h-1c-0.276,0-0.5,0.224-0.5,0.5  c0,0.276,0.224,0.5,0.5,0.5H17v3.5c0,0.276,0.224,0.5,0.5,0.5s0.5-0.224,0.5-0.5v-4C18,12.224,17.776,12,17.5,12z" style="fill: #111918;"/>
<metadata><work rdf:about=""><format>image/svg+xml</format><type rdf:resource="http://purl.org/dc/dcmitype/StillImage"/><license rdf:resource="http://creativecommons.org/licenses/by/4.0/"/><attributionname>Shannon E Thomas</attributionname><attributionurl>http://www.toicon.com/icons/feather_teach</attributionurl></work></metadata></svg>
